<?xml version="1.0" encoding="utf-8"?>
<!-- Generator: Adobe Illustrator 16.0.0, SVG Export Plug-In . SVG Version: 6.00 Build 0)  -->
<!DOCTYPE svg PUBLIC "-//W3C//DTD SVG 1.1//EN" "http://www.w3.org/Graphics/SVG/1.1/DTD/svg11.dtd">
<svg version="1.1" id="Layer_1" xmlns="http://www.w3.org/2000/svg" xmlns:xlink="http://www.w3.org/1999/xlink" x="0px" y="0px"
	 width="2800px" height="2800px" viewBox="0 0 2800 2800" enable-background="new 0 0 2800 2800" xml:space="preserve">
<g>
	<g>
		<rect x="243.3" y="689.4" fill="#E5C6A4" width="1502.9" height="1509.8"/>
		<path fill="#333333" d="M1746.3,2224.1H243.3c-13.8,0-24.9-11.2-24.9-24.9V689.4c0-13.8,11.2-24.9,24.9-24.9h1502.9
			c13.8,0,24.9,11.2,24.9,24.9v1509.8C1771.2,2212.9,1760,2224.1,1746.3,2224.1z M268.3,2174.2h1453.1V714.3H268.3V2174.2z"/>
	</g>
	<g>
		<circle fill="#5DB0F4" cx="300.5" cy="756.5" r="45.9"/>
		<path fill="#333333" d="M300.5,827.4c-39.1,0-70.8-31.8-70.8-70.8c0-39.1,31.8-70.8,70.8-70.8c39.1,0,70.8,31.8,70.8,70.8
			C371.3,795.6,339.5,827.4,300.5,827.4z M300.5,735.6c-11.6,0-21,9.4-21,21c0,11.6,9.4,21,21,21c11.6,0,21-9.4,21-21
			C321.4,745,312,735.6,300.5,735.6z"/>
	</g>
	<g>
		<circle fill="#5DB0F4" cx="1681.4" cy="756.5" r="45.9"/>
		<path fill="#333333" d="M1681.4,827.4c-39.1,0-70.8-31.8-70.8-70.8c0-39.1,31.8-70.8,70.8-70.8c39.1,0,70.8,31.8,70.8,70.8
			C1752.2,795.6,1720.4,827.4,1681.4,827.4z M1681.4,735.6c-11.6,0-21,9.4-21,21c0,11.6,9.4,21,21,21s21-9.4,21-21
			C1702.3,745,1692.9,735.6,1681.4,735.6z"/>
	</g>
	<g>
		<circle fill="#5DB0F4" cx="300.5" cy="2152.5" r="45.9"/>
		<path fill="#333333" d="M300.5,2223.4c-39.1,0-70.8-31.8-70.8-70.8c0-39.1,31.8-70.8,70.8-70.8c39.1,0,70.8,31.8,70.8,70.8
			C371.3,2191.6,339.5,2223.4,300.5,2223.4z M300.5,2131.6c-11.6,0-21,9.4-21,21s9.4,21,21,21c11.6,0,21-9.4,21-21
			S312,2131.6,300.5,2131.6z"/>
	</g>
	<g>
		<circle fill="#5DB0F4" cx="1681.4" cy="2152.5" r="45.9"/>
		<path fill="#333333" d="M1681.4,2223.4c-39.1,0-70.8-31.8-70.8-70.8c0-39.1,31.8-70.8,70.8-70.8c39.1,0,70.8,31.8,70.8,70.8
			C1752.2,2191.6,1720.4,2223.4,1681.4,2223.4z M1681.4,2131.6c-11.6,0-21,9.4-21,21s9.4,21,21,21s21-9.4,21-21
			S1692.9,2131.6,1681.4,2131.6z"/>
	</g>
	<g>
		<g>
			<rect x="624.3" y="952.1" fill="#E5C6A4" width="742.8" height="71.2"/>
			<path fill="#333333" d="M1367.1,1034.6H624.3c-6.2,0-11.3-5.1-11.3-11.3v-71.2c0-6.2,5.1-11.3,11.3-11.3h742.8
				c6.2,0,11.3,5.1,11.3,11.3v71.2C1378.4,1029.5,1373.4,1034.6,1367.1,1034.6z M635.6,1012h720.2v-48.6H635.6V1012z"/>
		</g>
		<g>
			<circle fill="#E55253" cx="624.3" cy="987.7" r="35.6"/>
			<path fill="#333333" d="M624.3,1034.6c-25.9,0-46.9-21-46.9-46.9c0-25.9,21-46.9,46.9-46.9c25.9,0,46.9,21,46.9,46.9
				C671.2,1013.6,650.1,1034.6,624.3,1034.6z M624.3,963.4c-13.4,0-24.3,10.9-24.3,24.3s10.9,24.3,24.3,24.3
				c13.4,0,24.3-10.9,24.3-24.3S637.7,963.4,624.3,963.4z"/>
		</g>
		<g>
			<circle fill="#E55253" cx="1367.1" cy="987.7" r="35.6"/>
			<path fill="#333333" d="M1367.1,1034.6c-25.9,0-46.9-21-46.9-46.9c0-25.9,21-46.9,46.9-46.9c25.9,0,46.9,21,46.9,46.9
				C1414,1013.6,1393,1034.6,1367.1,1034.6z M1367.1,963.4c-13.4,0-24.3,10.9-24.3,24.3s10.9,24.3,24.3,24.3s24.3-10.9,24.3-24.3
				S1380.5,963.4,1367.1,963.4z"/>
		</g>
	</g>
	<g>
		<g>
			<rect x="624.3" y="1852.9" fill="#E5C6A4" width="742.8" height="71.2"/>
			<path fill="#333333" d="M1367.1,1935.4H624.3c-6.2,0-11.3-5.1-11.3-11.3v-71.2c0-6.2,5.1-11.3,11.3-11.3h742.8
				c6.2,0,11.3,5.1,11.3,11.3v71.2C1378.4,1930.3,1373.4,1935.4,1367.1,1935.4z M635.6,1912.8h720.2v-48.6H635.6V1912.8z"/>
		</g>
		<g>
			<circle fill="#E55253" cx="624.3" cy="1888.5" r="35.6"/>
			<path fill="#333333" d="M624.3,1935.4c-25.9,0-46.9-21-46.9-46.9s21-46.9,46.9-46.9c25.9,0,46.9,21,46.9,46.9
				S650.1,1935.4,624.3,1935.4z M624.3,1864.2c-13.4,0-24.3,10.9-24.3,24.3c0,13.4,10.9,24.3,24.3,24.3c13.4,0,24.3-10.9,24.3-24.3
				C648.6,1875.1,637.7,1864.2,624.3,1864.2z"/>
		</g>
		<g>
			<circle fill="#E55253" cx="1367.1" cy="1888.5" r="35.6"/>
			<path fill="#333333" d="M1367.1,1935.4c-25.9,0-46.9-21-46.9-46.9s21-46.9,46.9-46.9c25.9,0,46.9,21,46.9,46.9
				S1393,1935.4,1367.1,1935.4z M1367.1,1864.2c-13.4,0-24.3,10.9-24.3,24.3c0,13.4,10.9,24.3,24.3,24.3s24.3-10.9,24.3-24.3
				C1391.4,1875.1,1380.5,1864.2,1367.1,1864.2z"/>
		</g>
	</g>
	<g>
		<g>
			<rect x="1410.5" y="1066.7" fill="#E5C6A4" width="71.2" height="742.8"/>
			<path fill="#333333" d="M1481.7,1820.8h-71.2c-6.2,0-11.3-5.1-11.3-11.3v-742.8c0-6.2,5.1-11.3,11.3-11.3h71.2
				c6.2,0,11.3,5.1,11.3,11.3v742.8C1493,1815.8,1487.9,1820.8,1481.7,1820.8z M1421.8,1798.2h48.6V1078h-48.6V1798.2z"/>
		</g>
		<g>
			<circle fill="#E55253" cx="1446.1" cy="1066.7" r="35.6"/>
			<path fill="#333333" d="M1446.1,1113.6c-25.9,0-46.9-21-46.9-46.9c0-25.9,21-46.9,46.9-46.9c25.8,0,46.9,21,46.9,46.9
				C1493,1092.5,1472,1113.6,1446.1,1113.6z M1446.1,1042.4c-13.4,0-24.3,10.9-24.3,24.3c0,13.4,10.9,24.3,24.3,24.3
				c13.4,0,24.3-10.9,24.3-24.3C1470.4,1053.3,1459.5,1042.4,1446.1,1042.4z"/>
		</g>
		<g>
			<circle fill="#E55253" cx="1446.1" cy="1809.5" r="35.6"/>
			<path fill="#333333" d="M1446.1,1856.4c-25.9,0-46.9-21-46.9-46.9c0-25.8,21-46.9,46.9-46.9c25.8,0,46.9,21,46.9,46.9
				C1493,1835.4,1472,1856.4,1446.1,1856.4z M1446.1,1785.3c-13.4,0-24.3,10.9-24.3,24.3s10.9,24.3,24.3,24.3
				c13.4,0,24.3-10.9,24.3-24.3S1459.5,1785.3,1446.1,1785.3z"/>
		</g>
	</g>
	<g>
		<g>
			<rect x="509.7" y="1066.7" fill="#E5C6A4" width="71.2" height="742.8"/>
			<path fill="#333333" d="M580.9,1820.8h-71.2c-6.2,0-11.3-5.1-11.3-11.3v-742.8c0-6.2,5.1-11.3,11.3-11.3h71.2
				c6.2,0,11.3,5.1,11.3,11.3v742.8C592.2,1815.8,587.1,1820.8,580.9,1820.8z M521,1798.2h48.6V1078H521V1798.2z"/>
		</g>
		<g>
			<circle fill="#E55253" cx="545.3" cy="1066.7" r="35.6"/>
			<path fill="#333333" d="M545.3,1113.6c-25.9,0-46.9-21-46.9-46.9c0-25.9,21-46.9,46.9-46.9c25.9,0,46.9,21,46.9,46.9
				C592.2,1092.5,571.1,1113.6,545.3,1113.6z M545.3,1042.4c-13.4,0-24.3,10.9-24.3,24.3c0,13.4,10.9,24.3,24.3,24.3
				s24.3-10.9,24.3-24.3C569.6,1053.3,558.7,1042.4,545.3,1042.4z"/>
		</g>
		<g>
			<circle fill="#E55253" cx="545.3" cy="1809.5" r="35.6"/>
			<path fill="#333333" d="M545.3,1856.4c-25.9,0-46.9-21-46.9-46.9c0-25.8,21-46.9,46.9-46.9c25.9,0,46.9,21,46.9,46.9
				C592.2,1835.4,571.1,1856.4,545.3,1856.4z M545.3,1785.3c-13.4,0-24.3,10.9-24.3,24.3s10.9,24.3,24.3,24.3s24.3-10.9,24.3-24.3
				S558.7,1785.3,545.3,1785.3z"/>
		</g>
	</g>
	<g>
		<circle fill="#E5C6A4" cx="1420.1" cy="1013.7" r="17.4"/>
		<path fill="#333333" d="M1420.1,1042.4c-15.8,0-28.7-12.9-28.7-28.7s12.9-28.7,28.7-28.7s28.7,12.9,28.7,28.7
			S1436,1042.4,1420.1,1042.4z M1420.1,1007.6c-3.4,0-6.1,2.7-6.1,6.1c0,3.4,2.7,6.1,6.1,6.1c3.4,0,6.1-2.7,6.1-6.1
			C1426.2,1010.3,1423.5,1007.6,1420.1,1007.6z"/>
	</g>
	<g>
		<circle fill="#E5C6A4" cx="567.6" cy="1013.7" r="17.4"/>
		<path fill="#333333" d="M567.6,1042.4c-15.8,0-28.7-12.9-28.7-28.7s12.9-28.7,28.7-28.7c15.8,0,28.7,12.9,28.7,28.7
			S583.4,1042.4,567.6,1042.4z M567.6,1007.6c-3.4,0-6.1,2.7-6.1,6.1c0,3.4,2.7,6.1,6.1,6.1c3.4,0,6.1-2.7,6.1-6.1
			C573.7,1010.3,571,1007.6,567.6,1007.6z"/>
	</g>
	<g>
		<circle fill="#E5C6A4" cx="1420.1" cy="1862.7" r="17.4"/>
		<path fill="#333333" d="M1420.1,1891.4c-15.8,0-28.7-12.9-28.7-28.7s12.9-28.7,28.7-28.7s28.7,12.9,28.7,28.7
			S1436,1891.4,1420.1,1891.4z M1420.1,1856.6c-3.4,0-6.1,2.7-6.1,6.1s2.7,6.1,6.1,6.1c3.4,0,6.1-2.7,6.1-6.1
			S1423.5,1856.6,1420.1,1856.6z"/>
	</g>
	<g>
		<circle fill="#E5C6A4" cx="567.6" cy="1862.7" r="17.4"/>
		<path fill="#333333" d="M567.6,1891.4c-15.8,0-28.7-12.9-28.7-28.7s12.9-28.7,28.7-28.7c15.8,0,28.7,12.9,28.7,28.7
			S583.4,1891.4,567.6,1891.4z M567.6,1856.6c-3.4,0-6.1,2.7-6.1,6.1s2.7,6.1,6.1,6.1c3.4,0,6.1-2.7,6.1-6.1
			S571,1856.6,567.6,1856.6z"/>
	</g>
	<path fill="#333333" d="M1049.2,1466.8l5.1-6.8l31.9-15.7l-31.9-15.7l-5.1-6.8l-1.2-8.4l11.4-33.7l-33.7,11.4l-8.4-1.2l-6.8-5.1
		l-15.7-31.9l-15.7,31.9l-6.8,5.1l-8.4,1.2l-33.7-11.4l11.4,33.7l-1.2,8.4l-5.1,6.8l-31.9,15.7l31.9,15.7l5.1,6.8l1.2,8.4
		l-11.4,33.7l33.7-11.4l8.4,1.2l6.8,5.1l15.7,31.9l15.7-31.9l6.8-5.1l8.4-1.2l33.7,11.4l-11.4-33.7L1049.2,1466.8z M1012.7,1449
		l-1.5,2l-0.4,2.5l3.4,10.1l-10.1-3.4l-2.5,0.4l-2,1.5l-4.7,9.6l-4.7-9.6l-2-1.5l-2.5-0.4l-10.1,3.4l3.4-10.1l-0.4-2.5l-1.5-2
		l-9.6-4.7l9.6-4.7l1.5-2l0.4-2.5l-3.4-10.1l10.1,3.4l2.5-0.4l2-1.5l4.7-9.6l4.7,9.6l2,1.5l2.5,0.4l10.1-3.4l-3.4,10.1l0.4,2.5
		l1.5,2l9.6,4.7L1012.7,1449z"/>
	<g>
		<path fill="#333333" d="M995,1589.5c-82.5,0-149.5-67.1-149.5-149.5c0-82.5,67.1-149.5,149.5-149.5s149.5,67.1,149.5,149.5
			C1144.6,1522.4,1077.5,1589.5,995,1589.5z M995,1297.4c-78.6,0-142.5,63.9-142.5,142.5c0,78.6,63.9,142.5,142.5,142.5
			c78.6,0,142.5-63.9,142.5-142.5C1137.5,1361.4,1073.6,1297.4,995,1297.4z"/>
	</g>
	<g>
		<path fill="#333333" d="M995,1549.2c-58.3,0-105.7-47.4-105.7-105.7c0-58.3,47.4-105.7,105.7-105.7s105.7,47.4,105.7,105.7
			C1100.7,1501.7,1053.3,1549.2,995,1549.2z M995,1344.7c-54.4,0-98.7,44.3-98.7,98.7c0,54.4,44.3,98.7,98.7,98.7
			s98.7-44.3,98.7-98.7C1093.7,1389,1049.4,1344.7,995,1344.7z"/>
	</g>
	<g>
		<g>
			<path fill="#333333" d="M750.4,1271c-43.9,0-79.7-35.7-79.7-79.7h7c0,40.1,32.6,72.6,72.6,72.6s72.6-32.6,72.6-72.6
				c0-40.1-32.6-72.6-72.6-72.6v-7c43.9,0,79.7,35.7,79.7,79.7C830.1,1235.3,794.4,1271,750.4,1271z"/>
		</g>
		<g>
			
				<rect x="414.5" y="1081.6" transform="matrix(0.714 0.7001 -0.7001 0.714 943.3617 -139.3302)" fill="#333333" width="455.5" height="7"/>
		</g>
		<polygon fill="#333333" points="753,1128.4 730.1,1115.2 753,1102 		"/>
		<polygon fill="#333333" points="476.5,940.9 469.7,915.5 495.2,922.3 		"/>
		<polygon fill="#333333" points="661.1,1194.6 674.3,1171.7 687.5,1194.6 		"/>
	</g>
	<g>
		<g>
			<path fill="#333333" d="M1241.5,1271c-43.9,0-79.7-35.7-79.7-79.7c0-43.9,35.7-79.7,79.7-79.7v7c-40.1,0-72.6,32.6-72.6,72.6
				c0,40.1,32.6,72.6,72.6,72.6c40.1,0,72.6-32.6,72.6-72.6h7C1321.2,1235.3,1285.4,1271,1241.5,1271z"/>
		</g>
		<g>
			
				<rect x="1346.2" y="857.4" transform="matrix(0.7 0.7141 -0.7141 0.7 1179.7568 -638.3387)" fill="#333333" width="7" height="455.5"/>
		</g>
		<polygon fill="#333333" points="1239,1128.4 1261.8,1115.2 1239,1102 		"/>
		<polygon fill="#333333" points="1515.4,940.9 1522.2,915.5 1496.8,922.3 		"/>
		<polygon fill="#333333" points="1330.9,1194.6 1317.7,1171.7 1304.5,1194.6 		"/>
	</g>
	<g>
		<g>
			<path fill="#333333" d="M750.4,1764.2v-7c40.1,0,72.6-32.6,72.6-72.6s-32.6-72.6-72.6-72.6s-72.6,32.6-72.6,72.6h-7
				c0-43.9,35.7-79.7,79.7-79.7c43.9,0,79.7,35.7,79.7,79.7C830.1,1728.4,794.4,1764.2,750.4,1764.2z"/>
		</g>
		<g>
			
				<rect x="638.7" y="1563" transform="matrix(0.7002 0.714 -0.714 0.7002 1471.0898 78.3638)" fill="#333333" width="7" height="455.5"/>
		</g>
		<polygon fill="#333333" points="753,1747.5 730.1,1760.7 753,1773.9 		"/>
		<polygon fill="#333333" points="476.5,1935 469.7,1960.4 495.2,1953.6 		"/>
		<polygon fill="#333333" points="661.1,1681.3 674.3,1704.2 687.5,1681.3 		"/>
	</g>
	<g>
		<g>
			<path fill="#333333" d="M1240.1,1764.2c-43.9,0-79.7-35.7-79.7-79.7c0-43.9,35.7-79.7,79.7-79.7s79.7,35.7,79.7,79.7h-7
				c0-40.1-32.6-72.6-72.6-72.6c-40.1,0-72.6,32.6-72.6,72.6s32.6,72.6,72.6,72.6V1764.2z"/>
		</g>
		<g>
			
				<rect x="1120.6" y="1787.2" transform="matrix(0.714 0.7001 -0.7001 0.714 1639.2761 -431.8867)" fill="#333333" width="455.5" height="7"/>
		</g>
		<polygon fill="#333333" points="1237.6,1747.5 1260.4,1760.7 1237.6,1773.9 		"/>
		<polygon fill="#333333" points="1514,1935 1520.9,1960.4 1495.4,1953.6 		"/>
		<polygon fill="#333333" points="1329.5,1681.3 1316.3,1704.2 1303.1,1681.3 		"/>
	</g>
</g>
</svg>
